<svg xmlns="http://www.w3.org/2000/svg" width="220" height="300" viewBox="0 0 220 300"><rect width="220" height="300" fill="white"></rect><line x1="110" y1="59.57627118644069" x2="110" y2="240.4237288135593" stroke="#0a0" stroke-width="0.5" stroke-dasharray="4,3"></line><path d="M110 64.57627118644069 L200 64.57627118644069 L200 235.4237288135593 L110 235.4237288135593 Z" fill="#cc2222" stroke="#333" stroke-width="0.8"></path><path d="M110 64.57627118644069 L20 64.57627118644069 L20 235.4237288135593 L110 235.4237288135593 Z" fill="#cc2222" stroke="#333" stroke-width="0.8"></path><path d="M110 64.57627118644069 L32.20338983050847 64.57627118644069 L32.20338983050847 235.4237288135593 L110 235.4237288135593 Z" fill="#999" stroke="#333" stroke-width="0.5"></path><line x1="198.16949152542372" y1="73.11864406779662" x2="200" y2="73.11864406779662" stroke="#333" stroke-width="0.5"></line><line x1="20" y1="73.11864406779662" x2="21.83050847457627" y2="73.11864406779662" stroke="#333" stroke-width="0.5"></line><line x1="198.16949152542372" y1="90.20338983050848" x2="200" y2="90.20338983050848" stroke="#333" stroke-width="0.5"></line><line x1="20" y1="90.20338983050848" x2="21.83050847457627" y2="90.20338983050848" stroke="#333" stroke-width="0.5"></line><line x1="198.16949152542372" y1="107.28813559322035" x2="200" y2="107.28813559322035" stroke="#333" stroke-width="0.5"></line><line x1="20" y1="107.28813559322035" x2="21.83050847457627" y2="107.28813559322035" stroke="#333" stroke-width="0.5"></line><line x1="198.16949152542372" y1="124.37288135593221" x2="200" y2="124.37288135593221" stroke="#333" stroke-width="0.5"></line><line x1="20" y1="124.37288135593221" x2="21.83050847457627" y2="124.37288135593221" stroke="#333" stroke-width="0.5"></line><line x1="198.16949152542372" y1="141.45762711864407" x2="200" y2="141.45762711864407" stroke="#333" stroke-width="0.5"></line><line x1="20" y1="141.45762711864407" x2="21.83050847457627" y2="141.45762711864407" stroke="#333" stroke-width="0.5"></line><line x1="198.16949152542372" y1="158.54237288135593" x2="200" y2="158.54237288135593" stroke="#333" stroke-width="0.5"></line><line x1="20" y1="158.54237288135593" x2="21.83050847457627" y2="158.54237288135593" stroke="#333" stroke-width="0.5"></line><line x1="198.16949152542372" y1="175.6271186440678" x2="200" y2="175.6271186440678" stroke="#333" stroke-width="0.5"></line><line x1="20" y1="175.6271186440678" x2="21.83050847457627" y2="175.6271186440678" stroke="#333" stroke-width="0.5"></line><line x1="198.16949152542372" y1="192.71186440677965" x2="200" y2="192.71186440677965" stroke="#333" stroke-width="0.5"></line><line x1="20" y1="192.71186440677965" x2="21.83050847457627" y2="192.71186440677965" stroke="#333" stroke-width="0.5"></line><line x1="198.16949152542372" y1="209.79661016949152" x2="200" y2="209.79661016949152" stroke="#333" stroke-width="0.5"></line><line x1="20" y1="209.79661016949152" x2="21.83050847457627" y2="209.79661016949152" stroke="#333" stroke-width="0.5"></line><line x1="198.16949152542372" y1="226.88135593220338" x2="200" y2="226.88135593220338" stroke="#333" stroke-width="0.5"></line><line x1="20" y1="226.88135593220338" x2="21.83050847457627" y2="226.88135593220338" stroke="#333" stroke-width="0.5"></line><text x="208" y="150" font-size="8" fill="#555" text-anchor="start">OD: 5.9"</text><text x="24.20338983050847" y="150" font-size="8" fill="#555" text-anchor="end">ID: 5.1"</text><text x="110" y="250.4237288135593" font-size="8" fill="#555" text-anchor="middle">L: 5.6"</text><text x="110" y="12" font-size="9" font-weight="bold" fill="#333" text-anchor="middle">Threaded Box (Female)</text></svg>