<svg xmlns="http://www.w3.org/2000/svg" width="220" height="300" viewBox="0 0 220 300"><rect width="220" height="300" fill="white"></rect><line x1="110" y1="15" x2="110" y2="285" stroke="#0a0" stroke-width="0.5" stroke-dasharray="4,3"></line><path d="M110 20 L151.16666666666666 20 L151.16666666666666 280 L110 280 Z" fill="#cc2222" stroke="#333" stroke-width="0.8"></path><path d="M110 20 L68.83333333333334 20 L68.83333333333334 280 L110 280 Z" fill="#cc2222" stroke="#333" stroke-width="0.8"></path><path d="M110 20 L88.33333333333334 20 L88.33333333333334 280 L110 280 Z" fill="#999" stroke="#333" stroke-width="0.5"></path><line x1="148.56666666666666" y1="41.66666666666667" x2="151.16666666666666" y2="41.66666666666667" stroke="#333" stroke-width="0.5"></line><line x1="68.83333333333334" y1="41.66666666666667" x2="71.43333333333334" y2="41.66666666666667" stroke="#333" stroke-width="0.5"></line><line x1="148.56666666666666" y1="85" x2="151.16666666666666" y2="85" stroke="#333" stroke-width="0.5"></line><line x1="68.83333333333334" y1="85" x2="71.43333333333334" y2="85" stroke="#333" stroke-width="0.5"></line><line x1="148.56666666666666" y1="128.33333333333331" x2="151.16666666666666" y2="128.33333333333331" stroke="#333" stroke-width="0.5"></line><line x1="68.83333333333334" y1="128.33333333333331" x2="71.43333333333334" y2="128.33333333333331" stroke="#333" stroke-width="0.5"></line><line x1="148.56666666666666" y1="171.66666666666666" x2="151.16666666666666" y2="171.66666666666666" stroke="#333" stroke-width="0.5"></line><line x1="68.83333333333334" y1="171.66666666666666" x2="71.43333333333334" y2="171.66666666666666" stroke="#333" stroke-width="0.5"></line><line x1="148.56666666666666" y1="215" x2="151.16666666666666" y2="215" stroke="#333" stroke-width="0.5"></line><line x1="68.83333333333334" y1="215" x2="71.43333333333334" y2="215" stroke="#333" stroke-width="0.5"></line><line x1="148.56666666666666" y1="258.33333333333337" x2="151.16666666666666" y2="258.33333333333337" stroke="#333" stroke-width="0.5"></line><line x1="68.83333333333334" y1="258.33333333333337" x2="71.43333333333334" y2="258.33333333333337" stroke="#333" stroke-width="0.5"></line><text x="159.16666666666666" y="150" font-size="8" fill="#555" text-anchor="start">OD: 1.9"</text><text x="80.33333333333334" y="150" font-size="8" fill="#555" text-anchor="end">ID: 1.0"</text><text x="110" y="295" font-size="8" fill="#555" text-anchor="middle">L: 6.0"</text><text x="110" y="12" font-size="9" font-weight="bold" fill="#333" text-anchor="middle">Threaded Box (Female)</text></svg>